# xmcd
#
# Track frame offsets:
#	150
#	24695
#	39452
#	64370
#	83057
#	98965
#	122362
#	150355
#	162005
#	177427
#
# Disc length: 2616 seconds
#
# Revision: 11
# Processed by: cddbd v1.5.2PL0 Copyright (c) Steve Scherf et al.
# Submitted via: audiograbber 1.83.01
#
DISCID=730a360a
DTITLE=B.B. King - The Best of B. B. King
DYEAR=1999
DGENRE=Blues
TTITLE0=The Thrill Is Gone
TTITLE1=Ain't Nobody Home
TTITLE2=Let The Good Times Roll
TTITLE3=Guess Who
TTITLE4=I Like To Live The Love
TTITLE5=Don't Answer The Door
TTITLE6=Sweet Sixteen
TTITLE7=Paying The Cost To Be The Boss
TTITLE8=I Got Some Help I Don't Need
TTITLE9=Into The Night
EXTD=The Millenium Collection
EXTT0=
EXTT1=
EXTT2=
EXTT3=
EXTT4=
EXTT5=
EXTT6=
EXTT7=
EXTT8=
EXTT9=
PLAYORDER=
